<svg width="25" height="24" viewBox="0 0 25 24" fill="none" xmlns="http://www.w3.org/2000/svg">
<path d="M13.8755 3.10215C13.3803 2.09876 11.9495 2.09877 11.4543 3.10215L9.09638 7.87987L3.82385 8.64601C2.71655 8.80691 2.27442 10.1677 3.07566 10.9487L6.8909 14.6676L5.99024 19.9189C5.8011 21.0217 6.95863 21.8627 7.94903 21.342L12.6649 18.8627L17.3808 21.342C18.3712 21.8627 19.5287 21.0217 19.3396 19.9189L18.4389 14.6676L22.2542 10.9487C23.0554 10.1677 22.6133 8.80691 21.506 8.64601L16.2335 7.87987L13.8755 3.10215ZM10.4066 8.61443L12.6649 4.03854L14.9233 8.61443C15.1199 9.01288 15.5 9.28904 15.9397 9.35294L20.9895 10.0867L17.3355 13.6486C17.0173 13.9587 16.8721 14.4055 16.9472 14.8435L17.8098 19.8729L13.2931 17.4983C12.8998 17.2915 12.43 17.2915 12.0367 17.4983L7.52004 19.8729L8.38264 14.8435C8.45776 14.4055 8.31256 13.9587 7.99439 13.6486L4.34032 10.0867L9.39012 9.35294C9.82983 9.28904 10.2099 9.01288 10.4066 8.61443ZM1.83088 3.78102C1.57212 4.10446 1.62456 4.57643 1.94801 4.83519L4.44801 6.83519C4.77146 7.09395 5.24343 7.04151 5.50218 6.71806C5.76094 6.39461 5.7085 5.92265 5.38505 5.66389L2.88505 3.66389C2.56161 3.40513 2.08964 3.45757 1.83088 3.78102ZM23.5022 18.2181C23.761 17.8946 23.7085 17.4226 23.3851 17.1639L20.8851 15.1639C20.5616 14.9051 20.0897 14.9576 19.8309 15.281C19.5721 15.6045 19.6246 16.0764 19.948 16.3352L22.448 18.3352C22.7715 18.5939 23.2434 18.5415 23.5022 18.2181ZM1.94801 17.1639C1.62456 17.4226 1.57212 17.8946 1.83088 18.2181C2.08964 18.5415 2.56161 18.5939 2.88505 18.3352L5.38505 16.3352C5.7085 16.0764 5.76094 15.6045 5.50218 15.281C5.24343 14.9576 4.77146 14.9051 4.44801 15.1639L1.94801 17.1639ZM23.5022 3.78102C23.761 4.10446 23.7085 4.57643 23.3851 4.83519L20.8851 6.83519C20.5616 7.09395 20.0897 7.04151 19.8309 6.71806C19.5721 6.39461 19.6246 5.92265 19.948 5.66389L22.448 3.66389C22.7715 3.40513 23.2434 3.45757 23.5022 3.78102Z" fill="white"/>
</svg>
